<svg width="377" height="125" viewBox="0 0 377 125" fill="none" xmlns="http://www.w3.org/2000/svg">
<path d="M125 62.5C125 27.9877 97.0123 0 62.5 0C27.9877 0 0 27.9877 0 62.5C0 97.0123 27.9877 125 62.5 125C97.0123 125 125 97.0123 125 62.5Z" fill="#25B7D3"/>
<path d="M93.3848 31.5901H31.6405V103.94H93.3848V31.5901Z" fill="#3A3536"/>
<path d="M87.3388 48.7203H37.6864V79.0004H87.3388V48.7203Z" fill="#CCCACA"/>
<path d="M93.3848 84.6937H31.6405V103.94H93.3848V84.6937Z" fill="#DDDDDD"/>
<path d="M93.3848 31.5901H31.6405V44.2614H93.3848V31.5901Z" fill="#CCCCCC"/>
<path d="M42.7499 41.4903C44.2942 41.4903 45.5461 40.2384 45.5461 38.6941C45.5461 37.1498 44.2942 35.8978 42.7499 35.8978C41.2055 35.8978 39.9536 37.1498 39.9536 38.6941C39.9536 40.2384 41.2055 41.4903 42.7499 41.4903Z" fill="#999999"/>
<path d="M41.8967 37.8503C40.6569 39.09 40.0346 40.4778 40.5068 40.95C40.979 41.4223 42.3669 40.8002 43.6068 39.5606C44.8466 38.3209 45.4689 36.9331 44.9967 36.4608C44.5245 35.9886 43.1366 36.6106 41.8967 37.8503Z" fill="#DDDDDC"/>
<path d="M42.2202 38.1581C40.9807 39.3976 40.2071 40.6338 40.4924 40.919C40.7777 41.2043 42.0138 40.4308 43.2534 39.1912C44.4929 37.9516 45.2665 36.7155 44.9812 36.4302C44.6959 36.1449 43.4598 36.9185 42.2202 38.1581Z" fill="#3A3A3A"/>
<path d="M55.925 41.4903C57.4694 41.4903 58.7213 40.2384 58.7213 38.6941C58.7213 37.1498 57.4694 35.8978 55.925 35.8978C54.3807 35.8978 53.1288 37.1498 53.1288 38.6941C53.1288 40.2384 54.3807 41.4903 55.925 41.4903Z" fill="#999999"/>
<path d="M55.0937 37.8627C56.328 36.6284 57.7136 35.9986 58.167 36.4772C58.6457 36.9558 58.0159 38.3162 56.7815 39.5506C55.5471 40.785 54.1616 41.4147 53.7081 40.9361C53.2295 40.4575 53.8341 39.0971 55.0937 37.8627Z" fill="#DDDDDC"/>
<path d="M55.396 38.165C56.6304 36.9307 57.8648 36.1497 58.1419 36.452C58.419 36.7291 57.6633 37.9635 56.4289 39.1979C55.1945 40.4323 53.9601 41.2132 53.683 40.9109C53.3807 40.6338 54.1617 39.3994 55.396 38.165Z" fill="#3A3A3A"/>
<path d="M66.2787 38.6941C66.2787 37.1574 67.5383 35.8978 69.0749 35.8978C70.6116 35.8978 71.8712 37.1574 71.8712 38.6941C71.8712 40.2308 70.6116 41.4903 69.0749 41.4903C67.5383 41.4903 66.2787 40.2308 66.2787 38.6941Z" fill="#999999"/>
<path d="M68.2364 37.8463C66.9968 39.0861 66.3747 40.474 66.847 40.9462C67.3192 41.4184 68.707 40.7962 69.9467 39.5563C71.1863 38.3165 71.8084 36.9286 71.3361 36.4564C70.8639 35.9842 69.4761 36.6065 68.2364 37.8463Z" fill="#DDDDDC"/>
<path d="M68.5867 38.1704C67.3474 39.4102 66.5739 40.6464 66.8593 40.9317C67.1446 41.2169 68.3807 40.4432 69.62 39.2034C70.8594 37.9637 71.6328 36.7275 71.3475 36.4422C71.0622 36.157 69.8261 36.9307 68.5867 38.1704Z" fill="#3A3A3A"/>
<path d="M82.2501 41.4903C83.7944 41.4903 85.0464 40.2384 85.0464 38.6941C85.0464 37.1498 83.7944 35.8978 82.2501 35.8978C80.7058 35.8978 79.4539 37.1498 79.4539 38.6941C79.4539 40.2384 80.7058 41.4903 82.2501 41.4903Z" fill="#999999"/>
<path d="M81.4044 37.8446C80.1646 39.0843 79.5423 40.4721 80.0145 40.9444C80.4867 41.4166 81.8746 40.7946 83.1145 39.5549C84.3543 38.3152 84.9766 36.9274 84.5044 36.4552C84.0321 35.9829 82.6442 36.605 81.4044 37.8446Z" fill="#DDDDDC"/>
<path d="M81.7501 38.1719C80.5106 39.4115 79.737 40.6476 80.0223 40.9329C80.3076 41.2182 81.5437 40.4446 82.7833 39.2051C84.0228 37.9655 84.7964 36.7294 84.5111 36.4441C84.2258 36.1588 82.9897 36.9323 81.7501 38.1719Z" fill="#3A3A3A"/>
<path d="M88.0946 21.0601H36.9055L31.6405 31.5649H93.3596L88.0946 21.0601Z" fill="#DDDDDD"/>
<path d="M48.1409 30.1794C52.76 30.1794 56.5045 29.2658 56.5045 28.1389C56.5045 27.0119 52.76 26.0984 48.1409 26.0984C43.5218 26.0984 39.7773 27.0119 39.7773 28.1389C39.7773 29.2658 43.5218 30.1794 48.1409 30.1794Z" fill="#3A3536"/>
<path d="M76.9095 30.1542C81.5147 30.1542 85.2479 29.2519 85.2479 28.1389C85.2479 27.0258 81.5147 26.1235 76.9095 26.1235C72.3044 26.1235 68.5712 27.0258 68.5712 28.1389C68.5712 29.2519 72.3044 30.1542 76.9095 30.1542Z" fill="#3A3536"/>
<path d="M50.786 25.1663C54.7094 25.1663 57.89 24.388 57.89 23.4281C57.89 22.4681 54.7094 21.6898 50.786 21.6898C46.8626 21.6898 43.682 22.4681 43.682 23.4281C43.682 24.388 46.8626 25.1663 50.786 25.1663Z" fill="#3A3536"/>
<path d="M74.2141 25.1663C78.1375 25.1663 81.3181 24.388 81.3181 23.4281C81.3181 22.4681 78.1375 21.6898 74.2141 21.6898C70.2907 21.6898 67.1101 22.4681 67.1101 23.4281C67.1101 24.388 70.2907 25.1663 74.2141 25.1663Z" fill="#3A3536"/>
<path d="M80.915 55.3204H43.1278V56.0762H80.915V55.3204Z" fill="#545253"/>
<path d="M80.915 63.1298H43.1278V63.8855H80.915V63.1298Z" fill="#545253"/>
<path d="M80.915 70.9391H43.1278V71.6949H80.915V70.9391Z" fill="#545253"/>
<path d="M148.112 76V43.168C148.112 43.168 148.144 43.04 148.208 42.784C148.304 42.528 148.544 42.4 148.928 42.4H160.448C160.448 43.456 160.432 44.224 160.4 44.704C160.368 45.152 160.304 45.44 160.208 45.568C160.112 45.696 159.952 45.76 159.728 45.76H152V75.232C152 75.232 151.984 75.36 151.952 75.616C151.92 75.872 151.696 76 151.28 76H148.112ZM148.64 59.488V55.936H159.248C159.248 57.408 159.216 58.368 159.152 58.816C159.088 59.264 158.88 59.488 158.528 59.488H148.64ZM170.265 76.48C168.345 76.48 166.873 76.192 165.849 75.616C164.825 75.04 164.105 74.16 163.689 72.976C163.305 71.792 163.113 70.304 163.113 68.512V52.768C163.113 52.512 163.161 52.336 163.257 52.24C163.353 52.144 163.673 52.08 164.217 52.048C164.793 52.016 165.753 52 167.097 52V68.848C167.097 69.872 167.177 70.704 167.337 71.344C167.529 71.952 167.849 72.4 168.297 72.688C168.777 72.944 169.449 73.072 170.313 73.072C170.761 73.072 171.289 73.008 171.897 72.88C172.505 72.752 173.065 72.528 173.577 72.208V52.768C173.577 52.512 173.625 52.336 173.721 52.24C173.849 52.144 174.169 52.08 174.681 52.048C175.225 52.016 176.153 52 177.465 52V74.752C176.537 75.264 175.433 75.68 174.153 76C172.873 76.32 171.577 76.48 170.265 76.48ZM181.817 76V42.496C181.817 41.888 181.913 41.472 182.105 41.248C182.329 40.992 182.729 40.848 183.305 40.816C183.881 40.752 184.681 40.72 185.705 40.72V75.232C185.705 75.488 185.641 75.664 185.513 75.76C185.417 75.856 185.097 75.92 184.553 75.952C184.041 75.984 183.129 76 181.817 76ZM190.114 76V42.496C190.114 41.888 190.21 41.472 190.402 41.248C190.626 40.992 191.026 40.848 191.602 40.816C192.178 40.752 192.978 40.72 194.002 40.72V75.232C194.002 75.488 193.938 75.664 193.81 75.76C193.714 75.856 193.394 75.92 192.85 75.952C192.338 75.984 191.426 76 190.114 76ZM211.333 76.48C209.125 76.48 207.509 76.176 206.485 75.568C205.493 74.928 204.997 74.272 204.997 73.6C204.997 73.216 205.077 72.768 205.237 72.256C205.397 71.712 205.653 71.232 206.005 70.816C206.517 71.296 207.173 71.696 207.973 72.016C208.805 72.336 209.797 72.496 210.949 72.496C212.645 72.496 213.845 72.048 214.549 71.152C215.285 70.256 215.653 69.072 215.653 67.6C215.653 66.512 215.445 65.504 215.029 64.576C214.645 63.648 213.925 62.576 212.869 61.36L208.069 55.744C206.981 54.4 206.197 53.2 205.717 52.144C205.269 51.056 205.045 49.936 205.045 48.784C205.045 46.768 205.749 45.12 207.157 43.84C208.597 42.56 210.645 41.92 213.301 41.92C215.573 41.92 217.189 42.16 218.149 42.64C219.109 43.088 219.589 43.648 219.589 44.32C219.589 44.64 219.509 45.008 219.349 45.424C219.189 45.808 218.949 46.176 218.629 46.528C218.309 46.304 217.717 46.064 216.853 45.808C216.021 45.52 215.045 45.376 213.925 45.376C212.485 45.376 211.333 45.664 210.469 46.24C209.637 46.816 209.221 47.632 209.221 48.688C209.221 49.552 209.413 50.352 209.797 51.088C210.213 51.792 210.773 52.576 211.477 53.44L216.661 59.344C217.909 60.816 218.757 62.16 219.205 63.376C219.653 64.592 219.877 65.952 219.877 67.456C219.877 69.056 219.605 70.544 219.061 71.92C218.549 73.296 217.669 74.4 216.421 75.232C215.205 76.064 213.509 76.48 211.333 76.48ZM229.736 76.48C228.392 76.48 227.384 76.192 226.712 75.616C226.072 75.008 225.656 74.176 225.464 73.12C225.272 72.032 225.176 70.768 225.176 69.328V55.36H221.912C221.912 54.336 221.912 53.6 221.912 53.152C221.944 52.672 222.024 52.368 222.152 52.24C222.28 52.08 222.472 52 222.728 52H225.176V44.704C225.176 44.224 225.272 43.904 225.464 43.744C225.688 43.552 226.072 43.44 226.616 43.408C227.192 43.376 228.008 43.36 229.064 43.36V52H233.96C233.96 52.992 233.944 53.728 233.912 54.208C233.912 54.688 233.848 55.008 233.72 55.168C233.624 55.296 233.448 55.36 233.192 55.36H229.064V69.328C229.064 70 229.08 70.64 229.112 71.248C229.176 71.824 229.32 72.288 229.544 72.64C229.8 72.96 230.216 73.12 230.792 73.12C231.336 73.12 231.816 73.072 232.232 72.976C232.648 72.848 233.096 72.656 233.576 72.4C233.64 72.656 233.704 72.944 233.768 73.264C233.832 73.584 233.864 73.952 233.864 74.368C233.864 74.944 233.64 75.392 233.192 75.712C232.776 76 232.248 76.192 231.608 76.288C231 76.416 230.376 76.48 229.736 76.48ZM242.897 76.48C242.001 76.48 241.137 76.4 240.305 76.24C239.505 76.112 238.785 75.808 238.145 75.328C237.505 74.816 236.993 74.08 236.609 73.12C236.225 72.16 236.033 70.848 236.033 69.184C236.033 67.52 236.209 66.176 236.561 65.152C236.913 64.096 237.393 63.296 238.001 62.752C238.609 62.176 239.297 61.792 240.065 61.6C240.833 61.408 241.617 61.312 242.417 61.312C242.929 61.312 243.521 61.36 244.193 61.456C244.897 61.552 245.489 61.712 245.969 61.936C245.969 61.936 245.969 61.712 245.969 61.264C245.969 60.816 245.969 60.304 245.969 59.728C245.969 59.12 245.969 58.592 245.969 58.144C245.969 57.376 245.841 56.8 245.585 56.416C245.361 56 245.025 55.712 244.577 55.552C244.161 55.36 243.633 55.264 242.993 55.264C241.745 55.264 240.545 55.376 239.393 55.6C238.241 55.824 237.313 56.08 236.609 56.368C236.385 55.984 236.241 55.6 236.177 55.216C236.113 54.8 236.081 54.432 236.081 54.112C236.081 53.888 236.113 53.648 236.177 53.392C236.273 53.136 236.417 52.944 236.609 52.816C237.025 52.56 237.889 52.288 239.201 52C240.513 51.68 242.081 51.52 243.905 51.52C245.985 51.52 247.489 51.952 248.417 52.816C249.377 53.68 249.857 55.2 249.857 57.376V59.92C249.857 61.744 249.841 63.584 249.809 65.44C249.809 67.264 249.793 68.992 249.761 70.624C249.729 72.224 249.665 73.632 249.569 74.848C248.929 75.232 248.049 75.6 246.929 75.952C245.809 76.304 244.465 76.48 242.897 76.48ZM243.281 73.216C243.793 73.216 244.289 73.136 244.769 72.976C245.249 72.816 245.585 72.624 245.777 72.4C245.841 71.888 245.873 71.184 245.873 70.288C245.905 69.392 245.921 68.448 245.921 67.456C245.953 66.464 245.969 65.536 245.969 64.672C245.649 64.512 245.265 64.4 244.817 64.336C244.401 64.272 244.033 64.24 243.713 64.24C243.201 64.24 242.721 64.304 242.273 64.432C241.857 64.528 241.489 64.752 241.169 65.104C240.849 65.424 240.593 65.904 240.401 66.544C240.209 67.184 240.113 68.032 240.113 69.088C240.113 69.952 240.177 70.656 240.305 71.2C240.465 71.744 240.689 72.176 240.977 72.496C241.265 72.784 241.601 72.976 241.985 73.072C242.369 73.168 242.801 73.216 243.281 73.216ZM260.249 76.48C259.065 76.48 258.025 76.32 257.129 76C256.265 75.712 255.529 75.152 254.921 74.32C254.313 73.456 253.849 72.24 253.529 70.672C253.241 69.104 253.097 67.056 253.097 64.528C253.097 61.648 253.353 59.344 253.865 57.616C254.377 55.888 255.049 54.592 255.881 53.728C256.745 52.832 257.673 52.24 258.665 51.952C259.689 51.664 260.697 51.52 261.689 51.52C262.809 51.52 263.753 51.728 264.521 52.144C265.289 52.528 265.673 53.04 265.673 53.68C265.673 53.936 265.641 54.256 265.577 54.64C265.545 55.024 265.449 55.424 265.289 55.84C264.905 55.616 264.409 55.424 263.801 55.264C263.193 55.072 262.553 54.976 261.881 54.976C261.337 54.976 260.777 55.088 260.201 55.312C259.657 55.504 259.145 55.92 258.665 56.56C258.185 57.2 257.801 58.16 257.513 59.44C257.257 60.72 257.129 62.416 257.129 64.528C257.129 66.224 257.209 67.632 257.369 68.752C257.561 69.84 257.833 70.704 258.185 71.344C258.537 71.952 258.985 72.384 259.529 72.64C260.073 72.896 260.697 73.024 261.401 73.024C262.169 73.024 262.889 72.912 263.561 72.688C264.265 72.432 264.825 72.176 265.241 71.92C265.369 72.336 265.449 72.72 265.481 73.072C265.545 73.392 265.577 73.712 265.577 74.032C265.577 74.704 265.081 75.28 264.089 75.76C263.097 76.24 261.817 76.48 260.249 76.48ZM268.771 76V42.496C268.771 41.888 268.867 41.472 269.059 41.248C269.283 40.992 269.683 40.848 270.259 40.816C270.835 40.752 271.651 40.72 272.707 40.72V53.728C273.507 53.056 274.451 52.528 275.539 52.144C276.627 51.728 277.683 51.52 278.707 51.52C279.763 51.52 280.579 51.712 281.155 52.096C281.763 52.48 282.179 52.992 282.403 53.632C282.659 54.24 282.787 54.912 282.787 55.648C282.787 56.672 282.643 57.584 282.355 58.384C282.067 59.184 281.699 59.904 281.251 60.544C280.803 61.152 280.355 61.68 279.907 62.128C279.491 62.544 279.123 62.864 278.803 63.088C279.571 63.408 280.291 63.936 280.963 64.672C281.635 65.376 282.195 66.272 282.643 67.36C283.123 68.448 283.427 69.728 283.555 71.2C283.619 71.776 283.635 72.416 283.603 73.12C283.603 73.792 283.555 74.496 283.459 75.232C283.427 75.488 283.347 75.68 283.219 75.808C283.091 75.904 282.723 75.968 282.115 76C281.539 76 280.515 76 279.043 76C279.171 74.816 279.234 73.744 279.234 72.784C279.234 71.792 279.171 70.896 279.043 70.096C278.883 69.136 278.659 68.32 278.371 67.648C278.083 66.976 277.747 66.448 277.363 66.064C276.979 65.648 276.563 65.376 276.115 65.248C275.699 65.088 275.267 65.056 274.819 65.152C274.531 65.216 274.211 65.328 273.859 65.488C273.539 65.616 273.267 65.744 273.043 65.872C272.819 66 272.707 66.064 272.707 66.064V75.232C272.707 75.488 272.643 75.664 272.515 75.76C272.419 75.856 272.099 75.92 271.555 75.952C271.043 75.984 270.115 76 268.771 76ZM272.707 63.28C273.827 62.8 274.819 62.272 275.683 61.696C276.547 61.12 277.219 60.448 277.699 59.68C278.211 58.88 278.467 57.984 278.467 56.992C278.467 55.68 277.875 55.024 276.691 55.024C276.019 55.024 275.347 55.216 274.675 55.6C274.003 55.952 273.347 56.528 272.707 57.328V63.28ZM294.315 76V43.168C294.315 43.168 294.347 43.04 294.411 42.784C294.507 42.528 294.747 42.4 295.131 42.4H306.651C306.651 43.456 306.635 44.224 306.603 44.704C306.571 45.184 306.507 45.504 306.411 45.664C306.315 45.824 306.155 45.904 305.931 45.904H298.203V72.496H306.459C306.459 73.584 306.443 74.384 306.411 74.896C306.379 75.376 306.315 75.68 306.219 75.808C306.123 75.936 305.947 76 305.691 76H294.315ZM294.843 59.488V55.936H305.451C305.451 57.408 305.419 58.368 305.355 58.816C305.291 59.264 305.083 59.488 304.731 59.488H294.843ZM309.786 76V42.496C309.786 41.888 309.882 41.472 310.074 41.248C310.298 40.992 310.698 40.848 311.274 40.816C311.85 40.752 312.65 40.72 313.674 40.72V75.232C313.674 75.488 313.61 75.664 313.482 75.76C313.386 75.856 313.066 75.92 312.522 75.952C312.01 75.984 311.098 76 309.786 76ZM324.947 76.48C323.859 76.48 322.835 76.32 321.875 76C320.947 75.712 320.131 75.168 319.427 74.368C318.755 73.568 318.227 72.432 317.843 70.96C317.491 69.488 317.315 67.584 317.315 65.248C317.315 62.24 317.555 59.824 318.035 58C318.515 56.176 319.155 54.8 319.955 53.872C320.755 52.944 321.667 52.32 322.691 52C323.715 51.68 324.755 51.52 325.811 51.52C327.827 51.52 329.347 52.16 330.371 53.44C331.395 54.72 331.907 56.656 331.907 59.248C331.907 60.304 331.859 61.392 331.763 62.512C331.699 63.632 331.555 64.624 331.331 65.488C330.243 65.712 329.027 65.872 327.683 65.968C326.339 66.064 325.059 66.144 323.843 66.208C322.627 66.24 321.619 66.256 320.819 66.256C320.051 66.256 319.667 66.256 319.667 66.256L319.715 63.088C319.715 63.088 320.019 63.104 320.627 63.136C321.235 63.136 321.971 63.136 322.835 63.136C323.731 63.104 324.627 63.056 325.523 62.992C326.451 62.896 327.235 62.752 327.875 62.56C327.971 62.112 328.035 61.632 328.067 61.12C328.099 60.608 328.115 60.128 328.115 59.68C328.083 57.952 327.875 56.736 327.491 56.032C327.139 55.296 326.435 54.928 325.379 54.928C324.835 54.928 324.307 55.088 323.795 55.408C323.315 55.696 322.883 56.224 322.499 56.992C322.115 57.728 321.811 58.752 321.587 60.064C321.395 61.376 321.299 63.056 321.299 65.104C321.299 66.608 321.379 67.856 321.539 68.848C321.731 69.84 322.003 70.608 322.355 71.152C322.739 71.696 323.203 72.096 323.747 72.352C324.323 72.576 325.011 72.688 325.811 72.688C326.771 72.688 327.715 72.56 328.643 72.304C329.603 72.048 330.467 71.68 331.235 71.2C331.395 71.584 331.491 72.032 331.523 72.544C331.587 73.024 331.619 73.456 331.619 73.84C331.619 74.32 331.315 74.768 330.707 75.184C330.099 75.6 329.283 75.92 328.259 76.144C327.267 76.368 326.163 76.48 324.947 76.48ZM341.908 76.48C340.564 76.48 339.556 76.192 338.884 75.616C338.244 75.008 337.828 74.176 337.636 73.12C337.444 72.032 337.348 70.768 337.348 69.328V55.36H334.084C334.084 54.336 334.084 53.6 334.084 53.152C334.116 52.672 334.196 52.368 334.324 52.24C334.452 52.08 334.644 52 334.9 52H337.348V44.704C337.348 44.224 337.444 43.904 337.636 43.744C337.86 43.552 338.244 43.44 338.788 43.408C339.364 43.376 340.18 43.36 341.236 43.36V52H346.132C346.132 52.992 346.116 53.728 346.084 54.208C346.084 54.688 346.02 55.008 345.892 55.168C345.796 55.296 345.62 55.36 345.364 55.36H341.236V69.328C341.236 70 341.252 70.64 341.284 71.248C341.348 71.824 341.492 72.288 341.716 72.64C341.972 72.96 342.388 73.12 342.964 73.12C343.508 73.12 343.988 73.072 344.404 72.976C344.82 72.848 345.268 72.656 345.748 72.4C345.812 72.656 345.876 72.944 345.94 73.264C346.004 73.584 346.036 73.952 346.036 74.368C346.036 74.944 345.812 75.392 345.364 75.712C344.948 76 344.42 76.192 343.78 76.288C343.172 76.416 342.548 76.48 341.908 76.48ZM349.301 76V53.68C350.229 53.008 351.253 52.48 352.373 52.096C353.493 51.712 354.645 51.52 355.829 51.52C357.077 51.52 357.941 51.696 358.421 52.048C358.933 52.368 359.189 52.864 359.189 53.536C359.189 53.792 359.157 54.144 359.093 54.592C359.029 55.008 358.917 55.424 358.757 55.84C358.405 55.648 358.037 55.504 357.653 55.408C357.269 55.312 356.869 55.264 356.453 55.264C355.909 55.264 355.349 55.36 354.773 55.552C354.229 55.712 353.733 55.968 353.285 56.32L353.237 75.232C353.237 75.488 353.173 75.664 353.045 75.76C352.949 75.856 352.629 75.92 352.085 75.952C351.541 75.984 350.613 76 349.301 76ZM367.645 76.48C366.429 76.48 365.341 76.32 364.381 76C363.453 75.712 362.669 75.136 362.029 74.272C361.389 73.408 360.909 72.16 360.589 70.528C360.269 68.864 360.109 66.688 360.109 64C360.109 59.616 360.813 56.448 362.221 54.496C363.629 52.512 365.581 51.52 368.077 51.52C369.773 51.52 371.165 51.872 372.253 52.576C373.373 53.28 374.205 54.528 374.749 56.32C375.293 58.112 375.565 60.624 375.565 63.856C375.565 68.336 374.893 71.568 373.549 73.552C372.205 75.504 370.237 76.48 367.645 76.48ZM367.741 73.168C368.445 73.168 369.053 72.928 369.565 72.448C370.109 71.936 370.541 71.008 370.861 69.664C371.181 68.32 371.341 66.4 371.341 63.904C371.341 61.344 371.213 59.424 370.957 58.144C370.701 56.832 370.333 55.952 369.853 55.504C369.373 55.056 368.733 54.832 367.933 54.832C367.229 54.832 366.605 55.088 366.061 55.6C365.517 56.08 365.085 56.992 364.765 58.336C364.477 59.68 364.333 61.6 364.333 64.096C364.333 66.048 364.413 67.632 364.573 68.848C364.733 70.064 364.941 70.992 365.197 71.632C365.485 72.24 365.853 72.656 366.301 72.88C366.749 73.072 367.229 73.168 367.741 73.168Z" fill="black"/>
</svg>
