<svg width="340" height="82" viewBox="0 0 340 82" fill="none" xmlns="http://www.w3.org/2000/svg">
<g clip-path="url(#clip0_15_4)">
<path d="M99.413 32.771C99.633 33.45 100.172 34.65 100.2 34.75L100.307 34.78C100.759 34.504 101.435 33.711 101.562 33.064C101.536 32.761 101.435 32.359 101.301 31.861C99.081 22.938 90.491 7.773 75.561 7.773C74.056 7.773 72.52 7.922 70.963 8.211C68.12 4.835 61.634 0 53.656 0C22.191 0 6.297 50.17 0.456 77.1C0.222 78.188 0.045 78.848 0 79.343C0.13 79.987 1.029 81.008 1.473 81.275L1.581 81.244C1.6 81.165 1.842 80.183 2.023 79.476C10.307 45.954 27.033 4.996 53.656 4.996C59.945 4.996 63.891 7.219 66.535 9.436C53.366 14.237 39.567 29.708 31.697 58.913H31.693L31.585 59.343L31.532 59.527V59.544C31.339 60.266 31.208 60.827 31.167 61.217C31.3 61.857 32.031 62.709 32.479 62.983L32.583 62.945C32.602 62.866 32.889 61.943 33.101 61.249C39.986 38.655 55.315 12.708 75.561 12.708C86.527 12.705 94.693 21.125 99.413 32.771Z" fill="#25B7D3"/>
<path d="M76.408 61.368C75.928 61.368 75.672 61.288 75.64 61.128C75.608 60.968 75.592 60.696 75.592 60.312V42.312C75.592 42.216 75.592 42.04 75.592 41.784C75.624 41.528 75.816 41.4 76.168 41.4H80.632C82.648 41.4 84.312 41.736 85.624 42.408C86.936 43.048 87.896 44.072 88.504 45.48C89.144 46.856 89.464 48.664 89.464 50.904C89.464 52.888 89.224 54.552 88.744 55.896C88.296 57.208 87.656 58.264 86.824 59.064C86.024 59.864 85.096 60.456 84.04 60.84C82.984 61.192 81.864 61.368 80.68 61.368H76.408ZM75.064 75V42.168C75.064 42.168 75.096 42.04 75.16 41.784C75.256 41.528 75.496 41.4 75.88 41.4H78.184C78.568 41.4 78.792 41.528 78.856 41.784C78.92 42.04 78.952 42.168 78.952 42.168V74.232C78.952 74.488 78.888 74.664 78.76 74.76C78.664 74.856 78.344 74.92 77.8 74.952C77.256 74.984 76.344 75 75.064 75ZM87.832 75.096C87.544 75.096 87.192 75.08 86.776 75.048C86.392 75.048 85.976 75.032 85.528 75C85.368 72.248 85.032 69.944 84.52 68.088C84.04 66.2 83.512 64.712 82.936 63.624C82.392 62.504 81.912 61.704 81.496 61.224C81.08 60.744 80.872 60.504 80.872 60.504C80.872 60.504 80.84 60.408 80.776 60.216C80.712 60.024 80.84 59.832 81.16 59.64L83.272 58.488C83.656 58.488 83.928 58.632 84.088 58.92C84.088 58.92 84.344 59.208 84.856 59.784C85.368 60.36 85.976 61.272 86.68 62.52C87.384 63.736 88.04 65.304 88.648 67.224C89.256 69.144 89.64 71.448 89.8 74.136C89.8 74.488 89.704 74.744 89.512 74.904C89.32 75.032 88.76 75.096 87.832 75.096ZM78.856 57.768H81.064C81.96 57.768 82.696 57.544 83.272 57.096C83.88 56.616 84.344 55.864 84.664 54.84C84.984 53.784 85.144 52.408 85.144 50.712C85.144 49.496 85.032 48.44 84.808 47.544C84.584 46.648 84.184 45.976 83.608 45.528C83.064 45.048 82.312 44.808 81.352 44.808H78.856V57.768ZM93.0674 75V52.776C93.0674 52.168 93.1794 51.752 93.4034 51.528C93.6274 51.272 94.0274 51.128 94.6034 51.096C95.1794 51.032 95.9954 51 97.0514 51V74.232C97.0514 74.488 96.9874 74.664 96.8594 74.76C96.7634 74.856 96.4434 74.92 95.8994 74.952C95.3554 74.984 94.4114 75 93.0674 75ZM94.9394 47.688C94.3314 47.656 93.8514 47.432 93.4994 47.016C93.1474 46.568 92.9714 45.784 92.9714 44.664C93.0034 43.8 93.1954 43.112 93.5474 42.6C93.8994 42.056 94.4594 41.784 95.2274 41.784C95.9634 41.784 96.4754 41.992 96.7634 42.408C97.0514 42.824 97.1794 43.544 97.1474 44.568C97.1474 45.528 96.9554 46.296 96.5714 46.872C96.2194 47.416 95.6754 47.688 94.9394 47.688ZM108.082 75.48C106.866 75.48 105.778 75.32 104.818 75C103.89 74.712 103.106 74.136 102.466 73.272C101.826 72.408 101.346 71.16 101.026 69.528C100.706 67.864 100.546 65.688 100.546 63C100.546 58.616 101.25 55.448 102.658 53.496C104.066 51.512 106.018 50.52 108.514 50.52C110.21 50.52 111.602 50.872 112.69 51.576C113.81 52.28 114.642 53.528 115.186 55.32C115.73 57.112 116.002 59.624 116.002 62.856C116.002 67.336 115.33 70.568 113.986 72.552C112.642 74.504 110.674 75.48 108.082 75.48ZM108.178 72.168C108.882 72.168 109.49 71.928 110.002 71.448C110.546 70.936 110.978 70.008 111.298 68.664C111.618 67.32 111.778 65.4 111.778 62.904C111.778 60.344 111.65 58.424 111.394 57.144C111.138 55.832 110.77 54.952 110.29 54.504C109.81 54.056 109.17 53.832 108.37 53.832C107.666 53.832 107.042 54.088 106.498 54.6C105.954 55.08 105.522 55.992 105.202 57.336C104.914 58.68 104.77 60.6 104.77 63.096C104.77 65.048 104.85 66.632 105.01 67.848C105.17 69.064 105.378 69.992 105.634 70.632C105.922 71.24 106.29 71.656 106.738 71.88C107.186 72.072 107.666 72.168 108.178 72.168ZM217.573 75L225.301 56.664L227.413 55.272C227.413 55.272 227.525 54.856 227.749 54.024C228.005 53.16 228.341 52.072 228.757 50.76C229.205 49.448 229.669 48.136 230.149 46.824L231.973 42.024C232.069 41.832 232.165 41.688 232.261 41.592C232.389 41.496 232.741 41.448 233.317 41.448C233.893 41.416 234.853 41.4 236.197 41.4L229.189 59.4L227.605 59.88C227.605 59.88 227.445 60.328 227.125 61.224C226.837 62.088 226.453 63.192 225.973 64.536C225.525 65.848 225.013 67.176 224.437 68.52L221.797 74.52C221.605 74.84 221.317 75 220.933 75H217.573ZM232.261 75L229.621 68.52C229.109 67.176 228.613 65.848 228.133 64.536C227.685 63.192 227.301 62.088 226.981 61.224C226.693 60.328 226.549 59.88 226.549 59.88L225.253 58.536L218.869 42.072C218.773 41.848 218.789 41.688 218.917 41.592C219.077 41.496 219.493 41.448 220.165 41.448C220.837 41.416 221.925 41.4 223.429 41.4L225.397 46.824C225.909 48.168 226.357 49.496 226.741 50.808C227.157 52.088 227.493 53.16 227.749 54.024C228.005 54.856 228.133 55.272 228.133 55.272L229.477 56.088L236.869 74.328C236.997 74.52 237.029 74.68 236.965 74.808C236.901 74.936 236.741 75 236.485 75H232.261Z" fill="#25B7D3"/>
<path d="M127.003 75V42.168C127.003 42.168 127.035 42.04 127.099 41.784C127.195 41.528 127.435 41.4 127.819 41.4H139.339C139.339 42.456 139.323 43.224 139.291 43.704C139.259 44.184 139.195 44.504 139.099 44.664C139.003 44.824 138.843 44.904 138.619 44.904H130.891V71.496H139.147C139.147 72.584 139.131 73.384 139.099 73.896C139.067 74.376 139.003 74.68 138.907 74.808C138.811 74.936 138.635 75 138.379 75H127.003ZM127.531 58.488V54.936H138.139C138.139 56.408 138.107 57.368 138.043 57.816C137.979 58.264 137.771 58.488 137.419 58.488H127.531ZM142.474 75V41.496C142.474 40.888 142.57 40.472 142.762 40.248C142.986 39.992 143.386 39.848 143.962 39.816C144.538 39.752 145.338 39.72 146.362 39.72V74.232C146.362 74.488 146.298 74.664 146.17 74.76C146.074 74.856 145.754 74.92 145.21 74.952C144.698 74.984 143.786 75 142.474 75ZM157.635 75.48C156.547 75.48 155.523 75.32 154.562 75C153.635 74.712 152.819 74.168 152.115 73.368C151.443 72.568 150.915 71.432 150.531 69.96C150.179 68.488 150.003 66.584 150.003 64.248C150.003 61.24 150.243 58.824 150.723 57C151.203 55.176 151.843 53.8 152.643 52.872C153.443 51.944 154.355 51.32 155.379 51C156.403 50.68 157.443 50.52 158.499 50.52C160.515 50.52 162.035 51.16 163.059 52.44C164.083 53.72 164.595 55.656 164.595 58.248C164.595 59.304 164.547 60.392 164.451 61.512C164.387 62.632 164.243 63.624 164.019 64.488C162.931 64.712 161.715 64.872 160.371 64.968C159.027 65.064 157.747 65.144 156.531 65.208C155.315 65.24 154.307 65.256 153.507 65.256C152.739 65.256 152.355 65.256 152.355 65.256L152.403 62.088C152.403 62.088 152.707 62.104 153.315 62.136C153.923 62.136 154.659 62.136 155.523 62.136C156.419 62.104 157.315 62.056 158.211 61.992C159.139 61.896 159.923 61.752 160.562 61.56C160.659 61.112 160.723 60.632 160.755 60.12C160.787 59.608 160.803 59.128 160.803 58.68C160.771 56.952 160.563 55.736 160.179 55.032C159.827 54.296 159.123 53.928 158.067 53.928C157.523 53.928 156.995 54.088 156.483 54.408C156.003 54.696 155.571 55.224 155.187 55.992C154.803 56.728 154.499 57.752 154.275 59.064C154.083 60.376 153.987 62.056 153.987 64.104C153.987 65.608 154.067 66.856 154.227 67.848C154.419 68.84 154.691 69.608 155.043 70.152C155.427 70.696 155.891 71.096 156.435 71.352C157.011 71.576 157.699 71.688 158.499 71.688C159.459 71.688 160.403 71.56 161.331 71.304C162.291 71.048 163.155 70.68 163.923 70.2C164.083 70.584 164.179 71.032 164.211 71.544C164.275 72.024 164.307 72.456 164.307 72.84C164.307 73.32 164.003 73.768 163.395 74.184C162.787 74.6 161.971 74.92 160.947 75.144C159.955 75.368 158.851 75.48 157.635 75.48ZM174.595 75.48C173.251 75.48 172.243 75.192 171.571 74.616C170.931 74.008 170.515 73.176 170.323 72.12C170.131 71.032 170.035 69.768 170.035 68.328V54.36H166.771C166.771 53.336 166.771 52.6 166.771 52.152C166.803 51.672 166.883 51.368 167.011 51.24C167.139 51.08 167.331 51 167.587 51H170.035V43.704C170.035 43.224 170.131 42.904 170.323 42.744C170.547 42.552 170.931 42.44 171.475 42.408C172.051 42.376 172.867 42.36 173.923 42.36V51H178.819C178.819 51.992 178.803 52.728 178.771 53.208C178.771 53.688 178.707 54.008 178.579 54.168C178.483 54.296 178.307 54.36 178.051 54.36H173.923V68.328C173.923 69 173.939 69.64 173.971 70.248C174.035 70.824 174.179 71.288 174.403 71.64C174.659 71.96 175.075 72.12 175.651 72.12C176.195 72.12 176.675 72.072 177.091 71.976C177.507 71.848 177.955 71.656 178.435 71.4C178.499 71.656 178.563 71.944 178.627 72.264C178.691 72.584 178.723 72.952 178.723 73.368C178.723 73.944 178.499 74.392 178.051 74.712C177.635 75 177.107 75.192 176.467 75.288C175.859 75.416 175.235 75.48 174.595 75.48ZM181.988 75V52.68C182.916 52.008 183.94 51.48 185.06 51.096C186.18 50.712 187.332 50.52 188.516 50.52C189.764 50.52 190.628 50.696 191.108 51.048C191.62 51.368 191.876 51.864 191.876 52.536C191.876 52.792 191.844 53.144 191.78 53.592C191.716 54.008 191.604 54.424 191.444 54.84C191.092 54.648 190.724 54.504 190.34 54.408C189.956 54.312 189.556 54.264 189.14 54.264C188.596 54.264 188.036 54.36 187.46 54.552C186.916 54.712 186.42 54.968 185.972 55.32L185.924 74.232C185.924 74.488 185.86 74.664 185.732 74.76C185.636 74.856 185.316 74.92 184.772 74.952C184.228 74.984 183.3 75 181.988 75ZM200.332 75.48C199.116 75.48 198.028 75.32 197.068 75C196.14 74.712 195.356 74.136 194.716 73.272C194.076 72.408 193.596 71.16 193.276 69.528C192.956 67.864 192.796 65.688 192.796 63C192.796 58.616 193.5 55.448 194.908 53.496C196.316 51.512 198.268 50.52 200.764 50.52C202.46 50.52 203.852 50.872 204.94 51.576C206.06 52.28 206.892 53.528 207.436 55.32C207.98 57.112 208.252 59.624 208.252 62.856C208.252 67.336 207.58 70.568 206.236 72.552C204.892 74.504 202.924 75.48 200.332 75.48ZM200.428 72.168C201.132 72.168 201.74 71.928 202.252 71.448C202.796 70.936 203.228 70.008 203.548 68.664C203.868 67.32 204.028 65.4 204.028 62.904C204.028 60.344 203.9 58.424 203.644 57.144C203.388 55.832 203.02 54.952 202.54 54.504C202.06 54.056 201.42 53.832 200.62 53.832C199.916 53.832 199.292 54.088 198.748 54.6C198.204 55.08 197.772 55.992 197.452 57.336C197.164 58.68 197.02 60.6 197.02 63.096C197.02 65.048 197.1 66.632 197.26 67.848C197.42 69.064 197.628 69.992 197.884 70.632C198.172 71.24 198.54 71.656 198.988 71.88C199.436 72.072 199.916 72.168 200.428 72.168Z" fill="#3A3536"/>
</g>
<defs>
<clipPath id="clip0_15_4">
<rect width="339.395" height="81.322" fill="white"/>
</clipPath>
</defs>
</svg>
